<?xml version="1.0" encoding="UTF-8" standalone="no"?>
<svg
   xmlns:dc="http://purl.org/dc/elements/1.1/"
   xmlns:cc="http://creativecommons.org/ns#"
   xmlns:rdf="http://www.w3.org/1999/02/22-rdf-syntax-ns#"
   xmlns:svg="http://www.w3.org/2000/svg"
   xmlns="http://www.w3.org/2000/svg"
   xmlns:sodipodi="http://sodipodi.sourceforge.net/DTD/sodipodi-0.dtd"
   xmlns:inkscape="http://www.inkscape.org/namespaces/inkscape"
   width="210mm"
   height="297mm"
   viewBox="0 0 210 297"
   version="1.1"
   id="svg8"
   inkscape:version="1.0.1 (1.0.1+r75)"
   sodipodi:docname="logo_ed.svg">
  <defs
     id="defs2" />
  <sodipodi:namedview
     id="base"
     pagecolor="#ffffff"
     bordercolor="#666666"
     borderopacity="1.0"
     inkscape:pageopacity="0.0"
     inkscape:pageshadow="2"
     inkscape:zoom="0.98994949"
     inkscape:cx="122.15364"
     inkscape:cy="772.46148"
     inkscape:document-units="mm"
     inkscape:current-layer="layer1"
     inkscape:document-rotation="0"
     showgrid="false"
     inkscape:window-width="1920"
     inkscape:window-height="1023"
     inkscape:window-x="0"
     inkscape:window-y="0"
     inkscape:window-maximized="1" />
  <metadata
     id="metadata5">
    <rdf:RDF>
      <cc:Work
         rdf:about="">
        <dc:format>image/svg+xml</dc:format>
        <dc:type
           rdf:resource="http://purl.org/dc/dcmitype/StillImage" />
        <dc:title />
      </cc:Work>
    </rdf:RDF>
  </metadata>
  <g
     inkscape:label="Capa 1"
     inkscape:groupmode="layer"
     id="layer1">
    <g
       id="g13"
       transform="matrix(4.1622548,0,0,3.769568,-307.95489,-360.59326)">
      <path
         id="path12"
         style="fill:#000000;stroke-width:0.999999"
         d="m 375.67578,481.02148 a 82.41665,80.896297 0 0 0 -82.41797,80.89649 82.41665,80.896297 0 0 0 82.41797,80.89648 82.41665,80.896297 0 0 0 82.41602,-80.89648 82.41665,80.896297 0 0 0 -82.41602,-80.89649 z m -0.625,13.91407 a 68.968558,66.946084 0 0 1 68.9668,66.94531 68.968558,66.946084 0 0 1 -68.9668,66.94726 68.968558,66.946084 0 0 1 -68.96875,-66.94726 68.968558,66.946084 0 0 1 68.96875,-66.94531 z"
         transform="scale(0.26458333)" />
      <rect
         style="fill:#000000;stroke-width:0.262626"
         id="rect21"
         width="3.9636605"
         height="64.311264"
         x="117.33459"
         y="105.2734" />
      <path
         id="path23"
         style="fill:#ff0000;stroke-width:0.245555"
         d="m 99.232184,130.9517 a 18.513576,18.264117 0 0 0 -18.513598,18.264 18.513576,18.264117 0 0 0 18.513598,18.264 18.513576,18.264117 0 0 0 14.788766,-7.27708 h -3.9641 a 15.299524,15.483936 0 0 1 -10.720796,4.43694 15.299524,15.483936 0 0 1 -15.237829,-14.10043 h 21.612635 v -0.009 h 11.98635 a 18.513576,18.264117 0 0 0 0.0486,-1.31465 18.513576,18.264117 0 0 0 -18.513596,-18.264 z m 0.02377,2.71973 a 15.299524,15.483936 0 0 1 0.0801,0 15.299524,15.483936 0 0 1 15.175306,13.51494 H 84.16127 a 15.299524,15.483936 0 0 1 15.094684,-13.51494 z" />
    </g>
  </g>
</svg>
